<?xml version="1.0" standalone="no"?>
<!DOCTYPE svg PUBLIC "-//W3C//DTD SVG 20010904//EN"
 "http://www.w3.org/TR/2001/REC-SVG-20010904/DTD/svg10.dtd">
<svg version="1.0" xmlns="http://www.w3.org/2000/svg"
 width="240.000000pt" height="240.000000pt" viewBox="0 0 240.000000 240.000000"
 preserveAspectRatio="xMidYMid meet">
<metadata>
Created by potrace 1.14, written by Peter Selinger 2001-2017
</metadata>
<g transform="translate(0.000000,240.000000) scale(0.100000,-0.100000)"
fill="#000000" stroke="none">
<path d="M1400 2040 c-58 -21 -149 -74 -215 -124 -153 -115 -437 -400 -595
-596 -25 -30 -47 -57 -50 -60 -20 -18 -174 -232 -214 -299 -85 -141 -44 -109
129 99 331 399 736 773 938 865 169 78 199 8 133 -315 -15 -69 -131 -349 -202
-486 -60 -115 -45 -104 -110 -82 -77 26 -138 15 -221 -39 -201 -132 -317 -464
-198 -563 29 -24 104 -21 160 5 65 31 208 168 280 269 11 15 29 38 40 52 l20
23 29 -55 c36 -69 80 -114 110 -114 28 0 101 38 184 96 35 24 76 50 91 59 68
35 133 25 197 -28 127 -109 178 -114 118 -11 -35 59 -107 121 -158 135 -94 26
-148 9 -299 -95 -54 -36 -106 -66 -115 -66 -20 0 -42 40 -73 128 -21 61 -23
52 56 218 155 325 226 571 221 769 -3 99 -24 163 -68 203 -37 34 -116 39 -188
12z m-201 -1087 l22 -18 -52 -75 c-129 -188 -266 -331 -304 -316 -21 8 -19 55
6 129 65 194 245 347 328 280z"/>
</g>
</svg>
