<?xml version="1.0" standalone="no"?>
<!DOCTYPE svg PUBLIC "-//W3C//DTD SVG 20010904//EN"
 "http://www.w3.org/TR/2001/REC-SVG-20010904/DTD/svg10.dtd">
<svg version="1.0" xmlns="http://www.w3.org/2000/svg"
 width="96px" height="96px" viewBox="0 0 240.000000 240.000000"
 preserveAspectRatio="xMidYMid meet">
<g transform="translate(0.000000,240.000000) scale(0.100000,-0.100000)"
 stroke="none">
<path d="M1389 2036 c-137 -56 -283 -168 -494 -380 -170 -171 -315 -339 -452
-523 -79 -106 -163 -238 -163 -255 0 -24 31 7 140 141 262 325 597 655 845
833 138 99 255 131 282 78 29 -57 12 -218 -42 -390 -43 -136 -221 -520 -241
-520 -3 0 -15 7 -28 15 -13 9 -45 18 -72 21 -166 19 -375 -200 -413 -432 -27
-170 62 -247 208 -179 65 31 204 166 277 271 27 38 54 70 59 70 6 -1 20 -26
32 -56 12 -30 36 -67 53 -82 51 -46 84 -38 220 57 113 79 156 98 207 92 25 -2
55 -15 72 -28 16 -13 52 -43 81 -66 85 -70 118 -50 62 38 -58 91 -138 142
-222 142 -64 0 -120 -25 -218 -97 -92 -68 -134 -89 -149 -73 -12 12 -73 163
-73 182 0 6 29 67 63 136 328 647 311 1147 -34 1005z m-190 -1083 l22 -18 -61
-90 c-121 -177 -244 -305 -293 -305 -46 0 -1 172 72 276 88 126 200 185 260
137z" fill="white"/>
</g>
</svg>
